<svg width="513" height="400" viewBox="0 0 513 400" fill="none" xmlns="http://www.w3.org/2000/svg">
<path d="M415.736 298.739C415.736 298.739 398 305.004 389.401 315.06C380.803 325.117 370.513 318.357 366.284 335.173C362.056 351.989 401.242 339.13 414.351 322.149C427.46 305.169 426.308 294.024 415.736 298.739Z" fill="#93C74B"/>
<path d="M440.254 217.63H81.0979C81.0979 217.63 79.0968 191.106 85.7683 157.43C87.884 146.75 90.8717 135.35 95.0735 123.849C109.964 83.0783 140.094 41.0311 200.629 25.2347C349.729 -13.6732 434.334 112.616 440.254 217.63Z" fill="#BDE9FF"/>
<path d="M126.909 160.256H99.8447L85.7683 157.43C87.884 146.75 90.8717 135.35 95.0735 123.849C104.065 126.526 113.412 136.855 110.698 149.21C125.922 142.945 126.909 160.256 126.909 160.256ZM392.717 116.943C382.608 116.943 372.499 116.943 362.39 116.943C361.252 113.366 362.59 109.412 365.314 107.822C367.721 106.416 370.771 107.113 372.679 109.595C372.747 108.764 373.219 103.802 376.578 101.234C380.37 98.3352 386.417 99.5764 390.334 105.035C390.53 104.499 392.066 100.47 395.208 99.714C398.717 98.8701 403.143 102.372 404.306 108.582C400.443 111.369 396.58 114.156 392.717 116.943Z" fill="white"/>
<path d="M141.991 168.993C130.996 171.301 113.437 171.119 105.624 157.783C101.597 150.909 94.4569 147.267 88.4822 145.351C85.5373 157.031 83.6919 168.17 82.5522 178.052C101.458 179.638 145.089 181.935 141.991 168.993Z" fill="#1CA3E5"/>
<path d="M437.929 195.78L280.295 196.678L81.0146 197.811C81.0779 196.222 81.1599 194.556 81.2617 192.817C81.5532 187.921 82.0149 182.456 82.728 176.57C83.2 172.672 83.7814 168.589 84.4961 164.364C90.3717 165.427 97.6785 167.055 106.265 169.554C130.838 176.702 141.498 162.706 163.729 156.54C185.96 150.373 206.228 183.052 224.255 183.938C242.281 184.825 276.825 154.839 290.26 155.5C291.432 155.558 292.44 155.501 293.318 155.349C296.817 154.746 298.262 152.645 299.816 150.327C302.342 146.556 305.155 142.212 317.578 142.823C319.592 142.923 321.453 143.03 323.183 143.133C323.183 143.133 323.183 143.133 323.184 143.133C336.188 143.903 341.816 144.344 349.711 138.13C352.224 136.154 354.966 133.502 358.247 129.973C373.217 113.879 395.119 105.057 395.119 105.057C395.119 105.057 398.459 104.069 403.126 103.381C408.007 110.996 412.423 118.905 416.365 127.015C419.848 134.174 422.96 141.49 425.699 148.899C427.15 152.816 428.495 156.762 429.736 160.722C433.377 172.348 436.115 184.115 437.929 195.78Z" fill="#78C1E5"/>
<path d="M120.711 175.617C120.711 175.617 143.87 175.617 156.791 163.783C145.455 168.773 134.606 172.979 120.711 175.617ZM324.52 162.628C316.835 156.055 293.318 155.349 293.318 155.349C296.817 154.746 298.262 152.645 299.816 150.327L301.042 149.379C301.042 149.379 317.521 154.442 324.52 162.628Z" fill="#56B6E5"/>
<path d="M230.934 192.816H81.2619C81.5536 187.92 82.0153 182.456 82.7281 176.57C86.6362 180.409 93.5953 185.435 103.828 186.351C120.777 187.869 147.091 185.328 162.689 186.351C178.287 187.376 175.635 186.351 188.906 186.351C202.179 186.351 230.934 192.816 230.934 192.816ZM425.699 148.898C417.805 153.379 397.429 162.378 371.112 154.733C337.258 144.896 323.339 143.152 323.184 143.133C328.557 142.02 337.391 138.235 349.712 138.129C355.95 138.076 363.082 138.967 371.112 141.626C387.797 147.153 406.565 134.904 416.365 127.015C419.847 134.174 422.96 141.49 425.699 148.898ZM437.929 195.78L280.295 196.677L236.15 190.47C236.15 190.47 256.589 182.534 268.358 182.534C280.128 182.534 281.152 178.226 288.815 178.226C296.479 178.226 305.172 176.906 323.237 178.226C341.303 179.544 350.087 181.861 356.338 177.64C362.591 173.418 385.302 168.889 397.977 166.303C407.285 164.404 422.373 161.913 429.736 160.722C433.377 172.347 436.115 184.115 437.929 195.78Z" fill="#1CA3E5"/>
<path d="M145.301 139.401C162.698 139.401 180.095 139.401 197.492 139.401C197.856 134.054 195.418 129.018 191.435 126.797C186.968 124.306 181.418 125.833 178.193 130.586C176.544 125.012 172.216 121.258 167.487 121.195C161.576 121.117 158.163 126.848 157.909 127.291C157.73 126.828 155.749 121.885 151.852 121.195C147.762 120.472 142.944 124.675 141.991 131.575C140.954 135.248 142.701 137.537 145.301 139.401ZM196.964 90.8491C205.468 90.8491 213.973 90.8491 222.477 90.8491C224.241 86.3957 222.525 81.0909 218.812 79.144C215.246 77.2737 210.9 79.0593 209.086 83.2655C208.517 79.8135 205.983 77.3413 203.166 77.3305C200.728 77.3212 198.468 79.1571 197.528 81.9466C196.023 79.0301 193.278 77.5277 190.903 78.1548C187.744 78.9887 185.411 83.5426 186.674 88.2113C190.104 89.0906 193.534 89.9699 196.964 90.8491ZM278.577 93.9815C294.365 93.9815 310.152 93.9815 325.939 93.9815C326.275 93.7285 331.682 89.5913 331.013 86.3979C330.433 83.6255 325.299 81.6909 318.186 83.1007C317.159 76.9817 313.931 71.8155 309.588 70.2416C303.113 67.8949 294.305 73.5863 291.827 84.7494C289.115 83.3294 284.868 81.7766 279.987 82.7711C278.126 83.1503 273.376 84.118 272.939 87.0575C272.604 89.3125 274.876 92.2768 278.577 93.9815Z" fill="white"/>
<path opacity="0.4" d="M133.965 108.177C141.745 114.524 147.082 123.843 154.052 131.235C168.339 146.387 186.64 156.374 205.952 158.118C226.226 159.948 246.126 152.318 262.497 138.482C270.817 131.45 278.205 122.942 284.539 113.506C291.424 103.251 296.873 91.7683 306.07 83.9411C324.532 68.2297 344.601 68.0686 365.113 78.0084C373.104 81.8806 381.328 84.252 389.68 84.665C386.993 81.3244 384.204 78.0679 381.312 74.9058C375.533 74.44 368.901 72.9801 361.83 69.7193C345.94 62.3914 327.142 63.4112 311.94 72.5892C289.298 86.2593 281.53 117.803 261.036 134.364C241.063 150.503 211.336 156.681 187.803 149.727C173.436 145.481 161.208 134.871 151.157 122.462C142.008 111.166 133.855 98.3906 120.16 94.7322C117.006 93.8896 113.542 92.8986 110.075 92.2235C108.557 94.7406 107.117 97.2816 105.751 99.8393C115.518 99.2548 124.936 100.81 133.965 108.177Z" fill="#E5F6FF"/>
<path opacity="0.4" d="M126.204 114.259C150.287 114.676 157.085 126.8 189.916 132.064C207.597 134.9 223.612 137.235 241.788 128.767C260.287 120.148 271.811 104.631 275.617 99.0922C287.639 81.6002 285.323 72.5035 294.224 60.8444C301.147 51.7755 314.129 42.1102 340.948 41.6457C336.295 38.8524 331.485 36.2711 326.521 33.9214C312.974 35.3097 294.691 42.3179 285.062 67.9883C268.57 111.951 236.891 135.123 206.196 130.258C175.502 125.392 164.755 122.156 148.052 115.166C133.06 108.892 112.05 108.273 98.4749 115.17C97.8355 116.694 97.2182 118.218 96.6235 119.742C105.042 116.475 115.037 114.066 126.204 114.259Z" fill="#E5F6FF"/>
<path d="M182.022 110.368C192.516 110.368 201.023 100.419 201.023 88.1451C201.023 75.8716 192.516 65.922 182.022 65.922C171.529 65.922 163.022 75.8716 163.022 88.1451C163.022 100.419 171.529 110.368 182.022 110.368Z" fill="#FFD109"/>
<path d="M435.639 183.704C434.399 181.46 377.097 182.922 373.694 182.534C365.675 183.154 350.959 187.548 342.35 185.496C335.504 183.022 332.076 182.182 320.068 182.591C307.95 182.882 292.551 184.268 280.444 185.423C258.535 188.291 253.363 185.64 233.329 189.573C218.658 192.096 199.242 190.707 184.418 189.809C174.546 188.962 168.79 190.57 158.849 190.652C156.676 190.673 131.866 190.583 130.086 190.733C112.585 192.947 97.5224 188.425 81.1616 190.362C80.0696 198.659 81.2402 230.026 84.7338 246.937C85.3955 250.65 86.1383 254.326 86.9719 257.997C88.9104 266.193 90.9831 274.379 92.9423 282.532C95.101 291.183 97.1962 299.888 100.262 308.109C102.709 314.655 106.063 320.993 111.102 325.206C114.136 327.751 117.381 329.409 121.045 330.621C144.273 337.735 183.721 344.908 204.397 363.604C215.055 372.621 235.518 379.316 259.826 381.466C295.064 384.521 336.686 375.654 356.347 338.11C358.886 334.335 361.55 330.693 364.389 327.227C368.996 321.585 374.053 316.441 379.55 312.026C384.381 308.129 389.559 304.846 394.847 301.925C400.139 298.959 405.589 296.353 410.61 292.785C415.768 289.176 420.207 284.212 423.318 278.17C435.504 252.042 446.937 209.868 435.639 183.704ZM160.566 338.567C153.429 335.779 146.573 333.002 142.653 331.997C130.911 328.984 138.903 323.88 138.903 323.88C142.672 321.335 154.124 323.042 164.889 327.16C189.741 336.891 198.093 355.393 160.566 338.567ZM282.807 372.75C270.871 378.698 235.912 372.628 236.22 359.078C237.782 346.833 316.307 359.09 282.807 372.75Z" fill="#93C74B"/>
<path d="M216.504 190.934L177.574 293.68L164.888 327.16C154.124 323.042 142.671 321.335 138.903 323.88C138.903 323.88 130.91 328.984 142.653 331.997C146.573 333.001 153.429 335.779 160.566 338.567L159.501 341.377C144.789 336.843 130.604 333.77 121.045 330.621C119.421 330.085 117.914 329.468 116.509 328.76L143.377 281.484L195.104 190.47C198.099 190.618 201.341 190.749 204.656 190.838C208.594 190.943 212.638 190.988 216.504 190.934Z" fill="#93C74B"/>
<path d="M238.611 188.579L214.547 315.599L205.307 364.37C204.993 364.116 204.688 363.86 204.397 363.603C192.408 353.082 175.638 346.35 159.501 341.377L160.566 338.567C174.812 344.132 190.173 349.738 185.505 341.377C182.323 335.677 173.844 330.584 164.888 327.16L177.574 293.68L216.504 190.934C217.868 190.916 219.209 190.884 220.516 190.838C225.537 190.661 230.045 190.274 233.329 189.573C235.16 189.182 236.919 188.854 238.611 188.579Z" fill="#BCD845"/>
<path d="M259.826 187.13V354.633C248.941 353.638 237.085 353.806 236.221 359.079C235.186 365.386 246.448 372.154 259.826 374.351V381.466C236.282 379.554 215.282 372.449 205.307 364.37L214.547 315.599L238.611 188.579C247.033 187.206 253.827 187.133 259.826 187.13Z" fill="#93C74B"/>
<path d="M151.785 190.652L87.1708 258.865C85.025 249.587 83.5683 240.698 82.5979 232.51L130.086 190.732C131.446 190.683 132.823 190.652 134.213 190.652H151.785ZM195.105 190.47L143.377 281.484C143.377 281.484 143.377 281.484 143.376 281.484L116.508 328.76C105.482 323.221 100.727 312.247 95.6581 293.233L104.045 282.166L174.118 189.696C177.078 189.531 180.337 189.499 184.418 189.809C187.187 190.019 190.905 190.262 195.105 190.47Z" fill="#BCD845"/>
<path d="M174.119 189.696L104.045 282.166L95.6582 293.233C94.8949 290.37 94.1257 287.326 93.326 284.09C91.753 277.725 90.0664 270.62 88.093 262.708C87.7717 261.42 87.4643 260.138 87.1707 258.865L151.786 190.652H158.849C164.825 190.652 169.029 189.978 174.119 189.696Z" fill="#93C74B"/>
<path d="M431.43 257.755C429.504 263.605 427.352 269.248 425.069 274.504C423.065 279.118 420.805 282.744 418.309 285.731L342.35 185.496C348.07 186.669 355.563 185.598 361.973 184.429L431.43 257.755ZM316.207 374.2H316.207C298.611 381.249 278.425 382.977 259.826 381.466V374.351C267.425 375.6 275.708 375.374 282.807 372.75C302.399 365.508 282.037 357.971 278.155 357.264C278.155 357.264 269.363 355.502 259.826 354.633V187.13C260.167 187.129 260.505 187.129 260.841 187.129C263.182 187.129 270.805 186.343 280.444 185.423L306.175 321.242L316.207 374.2Z" fill="#BCD845"/>
<path d="M437.807 233.172V233.173C436.258 241.445 434.054 249.791 431.43 257.755L361.973 184.429C367.006 183.512 371.372 182.534 373.693 182.534H380.248L437.807 233.172ZM418.309 285.731C410.76 294.765 401.041 297.962 389.62 304.965L320.068 182.59C328.766 182.379 335.714 182.739 338.436 184.16C339.601 184.768 340.92 185.202 342.35 185.496L418.309 285.731Z" fill="#93C74B"/>
<path d="M389.62 304.965C389.276 305.177 388.93 305.391 388.583 305.609C379.384 311.392 369.11 319.785 358 335.697L350.781 316.644L300.397 183.672C307.244 183.148 314.073 182.733 320.068 182.59L389.62 304.965Z" fill="#BCD845"/>
<path d="M358 335.697C356.048 338.493 354.07 341.521 352.067 344.809C343.428 358.988 330.698 368.399 316.207 374.2H316.207L306.174 321.243L280.444 185.423C286.56 184.839 293.488 184.2 300.397 183.672L350.781 316.644L358 335.697Z" fill="#93C74B"/>
<path opacity="0.8" d="M143.376 281.484L116.508 328.76C105.482 323.221 100.727 312.247 95.6582 293.233C94.8949 290.37 94.1258 287.326 93.326 284.09C96.5213 283.416 100.128 282.746 104.045 282.166C115.397 280.484 129.343 279.56 143.376 281.484ZM375.662 310.215C368.703 313.219 360.116 315.199 350.781 316.644C336.606 318.839 320.71 319.802 306.175 321.242L306.174 321.243C293.466 322.503 281.799 324.129 273.236 327.265C268.99 328.82 264.518 329.576 259.826 329.637C246.486 329.808 231.361 324.35 214.547 315.599C203.008 309.593 190.673 302.034 177.574 293.68C177.253 293.475 176.932 293.27 176.611 293.065C166.392 286.536 154.857 283.058 143.377 281.484L116.509 328.76C117.914 329.468 119.421 330.085 121.045 330.621C130.604 333.77 144.789 336.843 159.501 341.377C175.638 346.35 192.409 353.082 204.397 363.603C204.689 363.86 204.993 364.116 205.308 364.37C215.282 372.449 236.282 379.554 259.826 381.466C278.425 382.978 298.612 381.249 316.207 374.2H316.208C330.698 368.399 343.428 358.987 352.067 344.809C352.693 343.782 353.317 342.779 353.937 341.802C354.059 341.61 354.181 341.42 354.302 341.23C354.429 341.032 354.555 340.836 354.682 340.64C354.805 340.449 354.929 340.259 355.053 340.069C355.176 339.879 355.3 339.69 355.423 339.502C355.547 339.314 355.67 339.128 355.793 338.942C355.978 338.663 356.163 338.387 356.347 338.111C356.366 338.085 356.384 338.057 356.402 338.029C356.66 337.645 356.918 337.266 357.175 336.89C357.267 336.756 357.359 336.623 357.45 336.49C357.511 336.401 357.573 336.312 357.634 336.224C357.756 336.047 357.878 335.872 358 335.697C358.087 335.573 358.174 335.448 358.26 335.326C358.347 335.202 358.434 335.08 358.52 334.957C358.607 334.834 358.693 334.712 358.78 334.59C358.792 334.574 358.804 334.557 358.816 334.541C358.977 334.314 359.137 334.09 359.298 333.867C359.315 333.843 359.331 333.821 359.347 333.798C359.526 333.55 359.705 333.303 359.884 333.059C359.973 332.937 360.062 332.815 360.152 332.694C360.24 332.573 360.329 332.452 360.419 332.332C360.508 332.212 360.597 332.092 360.686 331.973C360.864 331.733 361.042 331.496 361.22 331.261C361.308 331.144 361.397 331.027 361.486 330.911C361.662 330.677 361.84 330.446 362.017 330.216C362.105 330.102 362.193 329.987 362.282 329.874C362.458 329.646 362.634 329.421 362.811 329.196C362.861 329.131 362.911 329.068 362.961 329.004C363.023 328.926 363.084 328.848 363.146 328.771C363.4 328.449 363.653 328.132 363.906 327.82C364.067 327.62 364.228 327.422 364.389 327.227C364.564 327.013 364.737 326.801 364.912 326.591C365.26 326.17 365.608 325.757 365.956 325.35C366.042 325.248 366.128 325.147 366.216 325.046C366.303 324.944 366.388 324.844 366.474 324.745C366.518 324.696 366.56 324.645 366.604 324.595C366.648 324.545 366.69 324.495 366.734 324.446C366.992 324.148 367.252 323.854 367.509 323.563C367.645 323.41 367.78 323.259 367.916 323.108C368.037 322.972 368.159 322.838 368.281 322.704C368.367 322.608 368.453 322.514 368.538 322.421C368.624 322.327 368.709 322.233 368.794 322.142C368.88 322.048 368.965 321.955 369.05 321.864C369.248 321.649 369.446 321.437 369.643 321.228C369.725 321.14 369.807 321.054 369.888 320.968C369.97 320.881 370.052 320.796 370.134 320.71C370.197 320.643 370.26 320.577 370.323 320.511C370.409 320.422 370.492 320.334 370.578 320.248C370.592 320.231 370.607 320.215 370.623 320.2C370.776 320.041 370.93 319.882 371.084 319.726C371.274 319.532 371.462 319.34 371.651 319.15C371.746 319.055 371.84 318.961 371.935 318.866C372.407 318.395 372.875 317.936 373.343 317.488C373.426 317.408 373.51 317.328 373.593 317.249C373.842 317.011 374.091 316.778 374.338 316.546C374.587 316.315 374.835 316.086 375.081 315.861C375.245 315.71 375.409 315.561 375.573 315.414C375.655 315.339 375.737 315.266 375.819 315.193C375.9 315.119 375.983 315.048 376.065 314.975C376.224 314.833 376.382 314.693 376.54 314.555C376.552 314.543 376.564 314.533 376.576 314.524C376.732 314.386 376.887 314.251 377.042 314.118C377.202 313.979 377.36 313.844 377.518 313.71C377.526 313.703 377.534 313.696 377.542 313.69C377.7 313.555 377.857 313.421 378.014 313.29C378.175 313.153 378.337 313.018 378.498 312.886C378.641 312.767 378.784 312.649 378.927 312.534C379.049 312.432 379.172 312.333 379.294 312.234C379.302 312.228 379.308 312.222 379.316 312.216C379.394 312.152 379.473 312.089 379.551 312.026C379.559 312.02 379.566 312.013 379.574 312.008C379.731 311.882 379.889 311.756 380.046 311.632C380.203 311.507 380.359 311.383 380.516 311.262C380.672 311.139 380.828 311.018 380.984 310.898C381.139 310.777 381.296 310.658 381.451 310.54C382.227 309.948 382.997 309.382 383.76 308.837C384.066 308.62 384.37 308.405 384.674 308.194C385.256 307.789 385.835 307.396 386.408 307.015C386.582 306.899 386.756 306.785 386.929 306.671C387.08 306.572 387.231 306.474 387.382 306.376C387.784 306.115 388.185 305.861 388.582 305.61C384.356 306.825 380.013 308.337 375.662 310.215ZM160.566 338.567C153.429 335.779 146.573 333.001 142.653 331.997C130.911 328.984 138.903 323.88 138.903 323.88C142.672 321.335 154.124 323.042 164.889 327.16C173.844 330.584 182.323 335.677 185.505 341.377C190.173 349.738 174.812 344.132 160.566 338.567ZM282.807 372.75C275.708 375.374 267.425 375.6 259.826 374.351C246.448 372.154 235.187 365.386 236.221 359.079C237.085 353.806 248.941 353.638 259.826 354.633C269.363 355.502 278.155 357.264 278.155 357.264C282.037 357.971 302.399 365.508 282.807 372.75Z" fill="#93C74B"/>
<path d="M81.5238 188.909C81.5238 188.909 80.5391 194.161 80.4126 199.602C85.337 194.777 90.8966 191.112 96.8401 188.669C88.0103 188.771 81.5238 188.909 81.5238 188.909Z" fill="#9FCD5F"/>
<path d="M106.103 188.588C102.861 188.607 99.7256 188.636 96.8401 188.669C90.8966 191.112 85.3369 194.777 80.4126 199.602C80.3596 201.883 80.4574 204.198 80.8421 206.172C80.8421 206.172 83.1882 205.824 87.2694 205.34C88.6739 204.014 90.0717 202.658 91.4593 201.22C96.1229 196.339 100.856 192.174 106.103 188.588Z" fill="#76AE28"/>
<path d="M106.103 188.588C100.856 192.174 96.1229 196.339 91.4593 201.22C90.0718 202.658 88.674 204.014 87.2695 205.34C90.5834 204.947 95.0424 204.465 100.318 204.005C103.885 200.165 108.103 197.423 112.419 194.166C115.187 192.094 117.893 190.167 120.711 188.588C115.922 188.553 110.897 188.559 106.103 188.588Z" fill="#9FCD5F"/>
<path d="M120.711 188.588C117.893 190.167 115.187 192.094 112.419 194.166C108.103 197.423 103.885 200.165 100.318 204.005C105.632 203.542 111.778 203.102 118.417 202.802C118.651 202.352 118.89 201.901 119.142 201.451C122.381 195.232 127.995 192.687 133.049 188.809C129.388 188.689 125.152 188.62 120.711 188.588Z" fill="#76AE28"/>
<path d="M133.049 188.809C127.995 192.688 122.382 195.232 119.142 201.451C118.89 201.901 118.651 202.352 118.417 202.802C121.791 202.649 125.293 202.532 128.879 202.467C129.247 201.967 129.626 201.474 130.017 200.988C133.696 196.134 138.454 193.489 142.747 189.44C140.622 189.148 137.207 188.945 133.049 188.809Z" fill="#9FCD5F"/>
<path d="M143.585 189.573C143.333 189.527 143.053 189.483 142.747 189.441C138.454 193.489 133.695 196.134 130.017 200.988C129.626 201.474 129.247 201.967 128.879 202.467C132.682 202.397 136.58 202.384 140.519 202.448C140.89 201.95 141.277 201.463 141.683 200.988C144.945 197.057 149.098 194.86 152.459 191.044C152.79 190.702 153.117 190.366 153.443 190.032C149.139 190.05 145.611 189.944 143.585 189.573ZM170.057 195.785C172.96 193.892 175.484 191.704 178.039 189.574C174.026 189.602 169.723 189.707 165.532 189.81C161.212 194.268 156.962 198.079 151.965 201.451C151.329 201.875 150.632 202.276 149.996 202.753C153.93 202.946 157.863 203.227 161.747 203.614C163.174 202.198 164.687 200.89 166.201 199.485C167.585 198.213 168.574 196.71 170.057 195.785Z" fill="#76AE28"/>
<path d="M178.214 189.573C178.156 189.573 178.098 189.574 178.039 189.574C175.484 191.703 172.96 193.892 170.057 195.785C168.574 196.71 167.585 198.213 166.201 199.485C164.687 200.889 163.174 202.198 161.747 203.614C165.534 203.991 169.272 204.47 172.917 205.064C177.96 199.796 183.278 195.219 188.461 189.936C185.539 189.728 182.01 189.549 178.214 189.573Z" fill="#9FCD5F"/>
<path d="M195.104 190.47C193.746 190.384 191.414 190.145 188.461 189.936C183.278 195.219 177.96 199.796 172.917 205.064C177.274 205.774 181.497 206.65 185.503 207.723C185.596 207.561 185.687 207.397 185.777 207.232C186.866 205.231 187.92 203.165 189.019 201.132C189.712 199.85 190.421 198.581 191.168 197.349C191.626 196.595 192.206 195.959 192.691 195.231C193.193 194.478 193.552 193.621 193.955 192.795C193.975 192.754 196.05 190.53 195.104 190.47Z" fill="#76AE28"/>
<path d="M153.443 190.032C153.117 190.366 152.79 190.702 152.459 191.044C149.098 194.86 144.945 197.057 141.683 200.988C141.277 201.463 140.89 201.949 140.519 202.447C143.66 202.498 146.828 202.597 149.996 202.752C150.632 202.276 151.329 201.875 151.965 201.451C156.962 198.079 161.212 194.268 165.532 189.809C161.24 189.914 157.067 190.017 153.443 190.032Z" fill="#9FCD5F"/>
<path opacity="0.8" d="M330.992 181.668C330.992 181.668 369.874 207.039 390.077 223.217C376.772 200.053 348.145 186.004 348.145 186.004L330.992 181.668Z" fill="#93C74B"/>
<path d="M391.129 224.447C379.562 211.496 365.82 203.171 351.484 195.308C341.539 189.9 344.169 189.329 334.423 183.079C333.921 183.18 328.542 179.599 320.068 179.709C309.216 179.85 301.042 183.623 301.042 183.623C301.042 183.623 309.925 184.851 320.068 191.728C327.088 196.487 333.934 205.465 342.047 212.393C361.883 229.332 360.316 230.761 367.803 239.517C375.289 248.273 406.933 295.229 411.331 292.259C412.454 291.501 420.899 284.409 424.608 276.758C420.886 267.758 416.338 259.28 410.704 251.158C404.179 241.792 398.544 232.773 391.129 224.447Z" fill="#93C74B"/>
<path d="M128.408 260.062C128.408 260.062 134.658 223.906 146.363 210.216V211.363C146.363 211.363 142.785 216.483 138.933 226.324C135.324 235.544 131.536 249.073 128.408 261.686C127.656 262.565 128.408 260.062 128.408 260.062Z" fill="#0D9214"/>
<path d="M145.071 211.846C145.071 211.846 144.531 223.202 151.652 220.415C158.773 217.627 147.424 210.216 147.424 210.216C147.424 210.216 166.079 211.033 162.144 203.12C158.209 195.206 148.685 205.428 148.685 205.428C148.685 205.428 156.647 189.161 146.363 191.771C136.079 194.382 145.062 206.171 145.062 206.171C145.062 206.171 133.401 195.866 132.132 204.438C130.863 213.011 141.02 210.216 141.02 210.216C141.02 210.216 129.508 217.762 138.291 220.415C147.073 223.068 145.071 211.846 145.071 211.846Z" fill="white"/>
<path d="M145.048 210.706C145.856 210.706 146.512 209.939 146.512 208.994C146.512 208.049 145.856 207.282 145.048 207.282C144.24 207.282 143.585 208.049 143.585 208.994C143.585 209.939 144.24 210.706 145.048 210.706Z" fill="#FFD109"/>
<path d="M109.446 238.514C109.446 238.514 99.2259 219.005 99.5976 207.004L100.012 207.524C100.012 207.524 100.236 211.618 102.041 217.99C103.732 223.962 106.898 231.977 110.033 239.252C110.009 240.023 109.446 238.514 109.446 238.514Z" fill="#0D9214"/>
<path d="M99.5995 208.382C99.5995 208.382 103.456 213.807 105.683 209.023C107.911 204.238 100.079 206.479 100.079 206.479C100.079 206.479 107.705 199.46 103.06 197.81C98.4143 196.161 98.9226 203.682 98.9226 203.682C98.9226 203.682 96.6638 192.359 92.9357 198.626C89.2075 204.893 97.5458 205.809 97.5458 205.809C97.5458 205.809 88.527 206.89 91.0472 211.411C93.5673 215.931 97.1708 209.643 97.1708 209.643C97.1708 209.643 94.6676 218.758 99.6148 215.624C104.562 212.49 99.5995 208.382 99.5995 208.382Z" fill="white"/>
<path d="M98.559 208.16C99.0604 208.16 99.4668 207.685 99.4668 207.098C99.4668 206.512 99.0604 206.036 98.559 206.036C98.0577 206.036 97.6513 206.512 97.6513 207.098C97.6513 207.685 98.0577 208.16 98.559 208.16Z" fill="#FFD109"/>
<path d="M134.505 254.724C134.204 246.371 133.901 237.985 132.6 229.764C131.516 222.912 129.719 216.148 126.767 210.067C123.974 204.313 119.777 199.635 117.244 193.701C115.307 189.163 114.64 184.113 113.849 179.18C113.244 175.409 112.286 171.518 109.396 169.276C108.026 168.214 106.217 167.878 104.625 168.285C105.151 172.828 106.797 180.69 111.685 192.198C120.037 211.857 125.041 230.28 124.23 248.58C123.743 259.582 125.115 269.27 126.287 275.402C127.321 275.15 128.367 274.656 129.404 273.877C131.929 271.98 133.454 268.638 134.104 265.211C134.754 261.785 134.631 258.231 134.505 254.724Z" fill="#86C546"/>
<path d="M124.23 248.58C125.041 230.28 120.037 211.857 111.685 192.198C106.797 180.69 105.151 172.828 104.625 168.285C104.067 168.427 103.536 168.663 103.06 168.989C103.479 175.152 105.136 185.977 110.945 200.482C120.354 223.975 111.479 231.602 115.705 250.353C119.39 266.702 123.799 272.814 125.429 275.557C125.714 275.523 126 275.472 126.287 275.402C125.115 269.27 123.743 259.582 124.23 248.58Z" fill="#6CBC39"/>
<path d="M110.945 200.482C105.136 185.977 103.478 175.151 103.06 168.989C102.324 169.493 101.718 170.216 101.349 171.163C100.419 173.546 101.204 176.311 101.917 178.793C105.334 190.688 106.973 203.279 106.736 215.824C106.595 223.307 105.813 230.985 107.703 238.136C109.048 243.224 111.631 247.77 112.682 252.976C113.333 256.196 112.954 259.42 113.395 262.645C114.321 269.435 119.593 276.243 125.429 275.557C123.799 272.814 119.39 266.702 115.705 250.354C111.479 231.602 120.354 223.975 110.945 200.482Z" fill="#0D9214"/>
<path d="M108.199 303.295C106.038 303.375 103.83 301.8 101.847 300.99C101.619 300.897 101.393 300.804 101.17 300.709C98.3746 299.532 95.8753 298.211 93.6093 295.807C90.1628 292.151 87.7762 287.346 85.6546 282.502C83.532 277.66 81.6001 272.659 78.8428 268.275C76.0489 263.833 72.4838 260.146 69.3241 256.054C66.1644 251.961 63.3269 247.248 62.4777 241.823C62.2107 240.121 62.2434 238.096 63.3872 236.998C63.5019 236.888 63.6215 236.792 63.7441 236.711C65.1994 235.746 67.1827 236.715 68.7111 237.734C79.0543 244.64 88.9616 252.442 98.3242 261.054C105.878 268.002 113.5 276.293 115.423 287.307C116.455 293.222 114.791 303.048 108.199 303.295Z" fill="#86C546"/>
<path d="M120.947 283.29C120.737 284.585 120.358 285.822 119.606 286.782C118.938 287.635 118.254 288.194 117.565 288.514C113.519 290.399 109.26 284.118 106.657 281.246C101.822 275.914 97.8111 271.503 95.1645 264.115C92.3933 256.381 91.2692 248 90.1679 239.714C89.0577 231.368 87.9484 223.022 86.8381 214.674C86.7145 213.74 86.6117 212.707 86.8658 211.846C86.9479 211.566 87.0675 211.305 87.2356 211.071C87.3365 210.93 87.4521 210.81 87.5757 210.706C88.3024 217.181 90.2885 227.099 95.6589 236.711C103.917 251.493 118.467 264.479 120.947 283.29Z" fill="#6CBC39"/>
<path d="M117.565 288.514C113.519 290.399 109.26 284.118 106.656 281.246C101.822 275.914 97.811 271.503 95.1644 264.115C92.3932 256.381 91.2691 248 90.1678 239.714C89.0576 231.368 87.9483 223.022 86.838 214.674C86.7144 213.74 86.6116 212.707 86.8657 211.846C87.9236 219.33 90.7461 237.073 94.7709 245.727C99.7399 256.411 115.412 280.059 117.565 288.514Z" fill="#0D9214"/>
<path d="M121.168 281.242C121.121 281.92 121.057 282.612 120.947 283.29C118.467 264.479 103.917 251.492 95.6587 236.711C90.2883 227.099 88.3021 217.181 87.5754 210.706C87.7959 210.521 88.0471 210.391 88.314 210.311C88.8973 210.138 89.5548 210.207 90.1192 210.47C91.0891 210.921 91.8494 211.817 92.575 212.693C100.379 222.114 107.833 232.099 113.272 243.57C115.41 248.079 117.225 252.843 118.586 257.758C120.689 265.351 121.711 273.305 121.168 281.242Z" fill="#86C546"/>
<path d="M118.451 263.459C118.451 263.459 112.446 251.92 103.086 238.565C95.6311 227.926 90.2103 215.092 88.3141 210.311C88.8973 210.138 89.5548 210.207 90.1193 210.47C91.0892 210.921 91.8495 211.817 92.5751 212.693C100.38 222.114 107.833 232.099 113.273 243.57C115.41 248.079 117.225 252.843 118.587 257.758C118.829 261.511 118.451 263.459 118.451 263.459Z" fill="#BBD945"/>
<path d="M292.775 232.697C292.581 232.842 292.386 232.987 292.19 233.133C291.667 233.524 290.972 233.373 290.608 232.785C288.754 229.789 286.231 227.299 283.153 225.664C280.078 224.03 276.819 223.446 273.673 223.782C273.051 223.848 272.491 223.341 272.397 222.618C272.363 222.35 272.328 222.082 272.293 221.815C272.192 221.03 272.678 220.313 273.354 220.239C277.023 219.837 280.824 220.513 284.413 222.42C288.002 224.326 290.938 227.23 293.093 230.725C293.49 231.369 293.348 232.27 292.775 232.697ZM287.632 236.541C287.436 236.688 287.241 236.834 287.046 236.98C286.529 237.367 285.847 237.22 285.474 236.65C284.241 234.766 282.606 233.2 280.633 232.152C278.66 231.104 276.577 230.694 274.553 230.848C273.94 230.894 273.397 230.39 273.306 229.68C273.271 229.413 273.237 229.145 273.202 228.876C273.1 228.08 273.603 227.355 274.29 227.299C276.82 227.092 279.427 227.598 281.893 228.908C284.36 230.219 286.401 232.182 287.933 234.545C288.349 235.187 288.213 236.106 287.632 236.541ZM282.474 240.404C282.275 240.553 282.078 240.701 281.883 240.846C281.394 241.213 280.749 241.107 280.366 240.595C279.76 239.787 279.002 239.113 278.113 238.64C277.224 238.168 276.292 237.943 275.373 237.943C274.792 237.942 274.298 237.444 274.213 236.771C274.179 236.504 274.144 236.234 274.109 235.96C274.004 235.139 274.54 234.391 275.25 234.38C276.63 234.36 278.034 234.685 279.373 235.396C280.711 236.107 281.845 237.13 282.741 238.36C283.201 238.992 283.072 239.956 282.474 240.404ZM278.655 247.499C277.827 249.63 275.678 250.575 273.854 249.606C272.032 248.638 271.227 246.124 272.054 243.993C272.582 242.633 273.647 241.757 274.822 241.553C275.489 241.434 276.193 241.534 276.853 241.885C277.513 242.236 278.039 242.789 278.403 243.456C279.045 244.623 279.182 246.14 278.655 247.499Z" fill="#FFD109"/>
<g opacity="0.5">
<path d="M344.082 248.771L305.064 294.077L308.129 297.688L345.935 253.789L407.415 251.376L361.509 307.342L328.539 351.427L301.908 296.785L256.471 275.749L254.87 280.48L298.886 300.858L327.787 360.159L364.718 310.78L417.959 245.872L344.082 248.771Z" fill="white"/>
<path d="M348.926 256.742L344.949 258.801L360.831 300.775L364.809 298.716L348.926 256.742Z" fill="white"/>
<path d="M314.541 299.66L314.022 304.712L356.298 310.652L356.817 305.601L314.541 299.66Z" fill="white"/>
</g>
<path d="M301.671 324.952C313.582 324.952 323.237 313.659 323.237 299.728C323.237 285.797 313.582 274.504 301.671 274.504C289.76 274.504 280.105 285.797 280.105 299.728C280.105 313.659 289.76 324.952 301.671 324.952Z" fill="#389FD9"/>
<path d="M340.848 278.115C352.758 278.115 362.414 266.822 362.414 252.891C362.414 238.96 352.758 227.667 340.848 227.667C328.937 227.667 319.281 238.96 319.281 252.891C319.281 266.822 328.937 278.115 340.848 278.115Z" fill="#389FD9"/>
<path d="M328.163 381.017C340.074 381.017 349.729 369.724 349.729 355.793C349.729 341.862 340.074 330.569 328.163 330.569C316.252 330.569 306.597 341.862 306.597 355.793C306.597 369.724 316.252 381.017 328.163 381.017Z" fill="#389FD9"/>
<path d="M364.852 333.373C376.762 333.373 386.418 322.08 386.418 308.149C386.418 294.218 376.762 282.925 364.852 282.925C352.941 282.925 343.285 294.218 343.285 308.149C343.285 322.08 352.941 333.373 364.852 333.373Z" fill="#389FD9"/>
<path d="M410.13 274.504C422.041 274.504 431.697 263.211 431.697 249.281C431.697 235.35 422.041 224.057 410.13 224.057C398.22 224.057 388.564 235.35 388.564 249.281C388.564 263.211 398.22 274.504 410.13 274.504Z" fill="#389FD9"/>
<path d="M301.671 284.561C301.671 284.561 286.131 313.082 301.671 313.082C317.211 313.082 301.671 284.561 301.671 284.561ZM353.566 255.384C353.566 251.609 350.95 248.549 347.723 248.549C347.48 248.549 347.242 248.568 347.008 248.602C347.035 248.322 347.051 248.038 347.051 247.749C347.051 243.658 344.215 240.341 340.717 240.341C337.218 240.341 334.383 243.658 334.383 247.749C334.383 248.169 334.414 248.58 334.471 248.981C334.002 248.836 333.509 248.758 333 248.758C329.822 248.758 327.246 251.771 327.246 255.488C327.246 259.205 329.822 262.218 333 262.218H348.657L348.592 262.143C351.407 261.651 353.566 258.813 353.566 255.384ZM363.113 309.061C367.057 313.91 365.764 322.836 365.764 322.836C365.764 322.836 358.077 323.902 354.133 319.054C350.189 314.205 351.482 305.278 351.482 305.278C351.482 305.278 359.169 304.213 363.113 309.061Z" fill="white"/>
<path d="M367.487 308.825C363.861 314.002 365.716 322.792 365.716 322.792C365.716 322.792 373.45 323.189 377.076 318.012C380.702 312.835 378.847 304.045 378.847 304.045C378.847 304.045 371.113 303.648 367.487 308.825Z" fill="white"/>
<path d="M370.635 303.063C370.455 309.752 364.114 314.946 364.114 314.946C364.114 314.946 358.066 309.296 358.246 302.607C358.426 295.918 364.767 290.724 364.767 290.724C364.767 290.724 370.815 296.375 370.635 303.063ZM412.009 252.44V234.123C412.009 232.217 410.688 230.671 409.058 230.671C407.428 230.671 406.106 232.217 406.106 234.123V252.44C404.707 253.548 403.787 255.422 403.787 257.547C403.787 260.951 406.147 263.711 409.058 263.711C411.968 263.711 414.328 260.951 414.328 257.547C414.328 255.422 413.408 253.232 412.009 252.44ZM422.353 242.383H416.211C415.768 242.383 415.409 241.963 415.409 241.444V240.455C415.409 239.937 415.768 239.517 416.211 239.517H422.353C422.797 239.517 423.156 239.937 423.156 240.455V241.444C423.156 241.963 422.797 242.383 422.353 242.383ZM422.353 248.624H416.211C415.768 248.624 415.409 248.204 415.409 247.686V246.697C415.409 246.178 415.768 245.758 416.211 245.758H422.353C422.797 245.758 423.156 246.178 423.156 246.697V247.686C423.156 248.204 422.797 248.624 422.353 248.624Z" fill="white"/>
<path d="M410.281 254.3V246.725H407.834V254.3C406.695 254.859 405.895 256.176 405.895 257.711C405.895 259.754 407.311 261.41 409.058 261.41C410.804 261.41 412.22 259.754 412.22 257.711C412.22 256.176 411.42 254.859 410.281 254.3Z" fill="#EF4821"/>
<path d="M410.281 236.602C410.281 235.812 409.733 235.171 409.058 235.171C408.382 235.171 407.834 235.812 407.834 236.602V246.725H410.281V236.602Z" fill="#8AC6E9"/>
<path d="M375.23 160.031H373.08L372.321 230.2C373.324 229.653 374.499 229.533 375.99 230.2L375.23 160.031Z" fill="white"/>
<path d="M373.141 162.19C373.141 162.19 370.497 164.407 369.527 168.273C368.558 172.139 363.676 197.718 363.71 198.016C363.847 199.242 364.645 199.414 364.702 198.686C364.702 198.686 373.833 171.428 373.833 168.284C373.833 165.14 374.155 163.015 374.155 163.015L373.141 162.19ZM376.037 161.169C376.037 161.169 379 162.739 382.348 161.788C385.695 160.837 407.076 152.992 407.28 152.809C408.119 152.057 407.847 151.163 407.28 151.469C407.28 151.469 382.531 155.849 380.203 157.421C377.875 158.993 376.141 159.73 376.141 159.73L376.037 161.169ZM373.833 158.747C373.833 158.747 373.514 154.96 371.136 152.045C368.758 149.13 352.259 131.396 352.022 131.281C351.045 130.807 350.519 131.529 351.029 131.951C351.029 131.951 366.646 154.829 368.975 156.401C371.303 157.973 372.715 159.361 372.715 159.361L373.833 158.747Z" fill="white"/>
<path d="M374.337 163.543C375.679 163.543 376.766 162.271 376.766 160.702C376.766 159.133 375.679 157.86 374.337 157.86C372.995 157.86 371.907 159.133 371.907 160.702C371.907 162.271 372.995 163.543 374.337 163.543Z" fill="#C2DCDA"/>
<path d="M312.432 131.724H310.875L310.325 182.534H312.982L312.432 131.724Z" fill="white"/>
<path d="M310.92 133.288C310.92 133.288 309.005 134.893 308.303 137.692C307.601 140.492 304.066 159.014 304.09 159.23C304.19 160.118 304.767 160.242 304.809 159.715C304.809 159.715 311.421 139.977 311.421 137.7C311.421 135.423 311.654 133.885 311.654 133.885L310.92 133.288ZM313.016 132.548C313.016 132.548 315.162 133.685 317.586 132.996C320.01 132.308 335.492 126.627 335.64 126.495C336.247 125.95 336.051 125.303 335.64 125.524C335.64 125.524 317.719 128.696 316.033 129.834C314.347 130.973 313.091 131.506 313.091 131.506L313.016 132.548ZM311.42 130.794C311.42 130.794 311.189 128.052 309.467 125.941C307.745 123.831 295.798 110.989 295.626 110.906C294.919 110.563 294.538 111.085 294.908 111.391C294.908 111.391 306.216 127.957 307.902 129.096C309.588 130.234 310.611 131.239 310.611 131.239L311.42 130.794Z" fill="white"/>
<path d="M311.785 134.268C312.757 134.268 313.544 133.346 313.544 132.21C313.544 131.074 312.757 130.152 311.785 130.152C310.814 130.152 310.026 131.074 310.026 132.21C310.026 133.346 310.814 134.268 311.785 134.268Z" fill="#C2DCDA"/>
<path d="M341.26 130.483H339.29L338.594 194.773H341.956L341.26 130.483Z" fill="white"/>
<path d="M339.346 132.462C339.346 132.462 336.924 134.493 336.035 138.035C335.147 141.577 330.674 165.012 330.705 165.285C330.831 166.409 331.562 166.566 331.614 165.899C331.614 165.899 339.98 140.926 339.98 138.045C339.98 135.164 340.275 133.218 340.275 133.218L339.346 132.462ZM341.999 131.526C341.999 131.526 344.714 132.964 347.781 132.093C350.848 131.222 370.437 124.034 370.624 123.867C371.393 123.177 371.144 122.359 370.624 122.639C370.624 122.639 347.949 126.652 345.816 128.092C343.683 129.533 342.094 130.207 342.094 130.207L341.999 131.526ZM339.98 129.307C339.98 129.307 339.687 125.837 337.509 123.167C335.33 120.496 320.213 104.248 319.996 104.142C319.101 103.708 318.619 104.37 319.087 104.756C319.087 104.756 333.395 125.717 335.529 127.158C337.662 128.598 338.956 129.87 338.956 129.87L339.98 129.307Z" fill="white"/>
<path d="M340.442 133.702C341.671 133.702 342.668 132.536 342.668 131.098C342.668 129.66 341.671 128.495 340.442 128.495C339.212 128.495 338.216 129.66 338.216 131.098C338.216 132.536 339.212 133.702 340.442 133.702Z" fill="#C2DCDA"/>
<path d="M371.392 92.6941C374.859 92.6941 377.67 89.4067 377.67 85.3513C377.67 81.296 374.859 78.0085 371.392 78.0085C367.924 78.0085 365.114 81.296 365.114 85.3513C365.114 89.4067 367.924 92.6941 371.392 92.6941Z" fill="white"/>
<path d="M152.485 99.8595C159.247 99.8595 166.008 99.8595 172.77 99.8595C173.821 97.136 173.361 94.0248 171.713 92.1984C169.627 89.885 165.912 89.9395 163.543 92.775C162.102 90.5545 159.592 90.3468 158.331 91.7041C157.431 92.6734 157.171 94.4371 157.697 96.0701C157.606 95.9505 156.365 94.3625 154.88 94.6697C153.347 94.9868 152.051 97.2198 152.485 99.8595Z" fill="white"/>
<path d="M338.382 358.707C338.382 352.562 334.789 347.398 329.925 345.934V371.481C334.789 370.017 338.382 364.853 338.382 358.707ZM318.194 358.707C318.194 352.562 321.788 347.398 326.651 345.934V371.481C321.788 370.017 318.194 364.853 318.194 358.707Z" fill="white"/>
<path d="M336.962 348.848C337.174 348.495 337.29 348.144 337.357 347.877C337.423 347.61 337.441 347.425 337.443 347.396C337.473 347.046 337.256 346.734 336.957 346.699C336.659 346.664 336.394 346.916 336.362 347.263H336.362C336.362 347.264 336.352 347.363 336.317 347.506C336.29 347.613 336.25 347.745 336.193 347.88C336.106 348.083 335.981 348.288 335.806 348.451C335.718 348.532 335.616 348.605 335.494 348.663C335.372 348.722 335.228 348.768 335.054 348.791C334.755 348.83 334.54 349.145 334.574 349.494C334.608 349.843 334.877 350.094 335.175 350.055C335.669 349.991 336.081 349.791 336.398 349.521C336.637 349.32 336.821 349.084 336.962 348.848ZM336.361 347.268C336.361 347.268 336.361 347.268 336.361 347.268V347.268ZM342.31 358.15C342.048 357.981 341.719 358.092 341.573 358.396L341.573 358.396C341.572 358.4 341.402 358.739 341.078 359.054C340.916 359.212 340.716 359.365 340.479 359.478C340.241 359.591 339.965 359.666 339.636 359.666C339.331 359.666 338.978 359.601 338.567 359.428C338.284 359.309 337.973 359.48 337.871 359.81C337.769 360.141 337.915 360.505 338.198 360.624C338.715 360.843 339.197 360.939 339.636 360.938C340.125 360.939 340.559 360.819 340.923 360.639C341.472 360.369 341.864 359.971 342.123 359.642C342.381 359.311 342.508 359.047 342.523 359.014C342.668 358.707 342.573 358.32 342.31 358.15ZM341.571 358.4C341.571 358.4 341.571 358.4 341.571 358.4V358.4ZM340.692 369.292H340.692C340.679 369.294 340.251 369.38 339.67 369.38C339.361 369.38 339.008 369.355 338.655 369.285C338.39 369.232 338.125 369.153 337.877 369.042C337.503 368.875 337.172 368.639 336.912 368.312C336.782 368.148 336.668 367.96 336.574 367.738C336.479 367.517 336.404 367.261 336.355 366.959C336.299 366.614 336.014 366.387 335.719 366.453C335.424 366.518 335.23 366.851 335.286 367.196C335.403 367.922 335.652 368.529 335.987 369.005C336.237 369.362 336.532 369.645 336.845 369.866C337.314 370.197 337.822 370.389 338.31 370.504C338.798 370.617 339.268 370.652 339.67 370.652C340.367 370.651 340.862 370.548 340.884 370.544C341.179 370.482 341.376 370.151 341.323 369.806C341.27 369.46 340.988 369.23 340.692 369.292ZM321.273 348.791C320.953 348.748 320.735 348.633 320.565 348.49C320.437 348.383 320.336 348.255 320.254 348.118C320.132 347.915 320.055 347.69 320.013 347.52C319.992 347.435 319.979 347.365 319.972 347.32C319.968 347.297 319.966 347.28 319.965 347.271L319.964 347.264H319.964C319.932 346.916 319.667 346.664 319.369 346.699C319.07 346.734 318.853 347.046 318.883 347.396C318.885 347.422 318.899 347.571 318.949 347.791C318.986 347.957 319.044 348.162 319.134 348.386C319.27 348.72 319.481 349.099 319.813 349.418C319.979 349.577 320.174 349.72 320.398 349.83C320.621 349.94 320.873 350.019 321.151 350.055C321.449 350.094 321.718 349.843 321.752 349.494C321.786 349.145 321.571 348.83 321.273 348.791ZM316.69 360.938C317.129 360.939 317.611 360.843 318.128 360.624C318.411 360.505 318.557 360.141 318.455 359.81C318.353 359.48 318.042 359.309 317.759 359.428C317.348 359.601 316.995 359.666 316.69 359.666C316.35 359.666 316.068 359.586 315.825 359.467C315.461 359.289 315.187 359.014 315.005 358.782C314.915 358.667 314.848 358.563 314.806 358.492C314.785 358.457 314.771 358.43 314.762 358.414L314.754 358.398L314.753 358.396H314.753C314.607 358.092 314.278 357.981 314.016 358.15C313.753 358.32 313.658 358.707 313.803 359.014C313.824 359.057 314.041 359.515 314.507 359.986C314.741 360.221 315.037 360.459 315.403 360.639C315.767 360.819 316.201 360.939 316.69 360.938Z" fill="white"/>
<path d="M320.607 366.453C320.312 366.387 320.027 366.614 319.971 366.959C319.883 367.495 319.715 367.887 319.498 368.199C319.335 368.432 319.14 368.621 318.92 368.776C318.59 369.01 318.201 369.164 317.803 369.256C317.407 369.349 317.004 369.38 316.656 369.38C316.354 369.38 316.093 369.357 315.911 369.334C315.819 369.323 315.747 369.312 315.7 369.304C315.676 369.3 315.658 369.297 315.647 369.294L315.636 369.292L315.634 369.292L315.634 369.292C315.338 369.23 315.056 369.46 315.003 369.806C314.95 370.152 315.147 370.482 315.443 370.544C315.464 370.548 315.959 370.652 316.656 370.652C317.013 370.652 317.424 370.625 317.854 370.539C318.176 370.474 318.509 370.377 318.837 370.231C319.329 370.011 319.813 369.678 320.211 369.178C320.409 368.928 320.584 368.637 320.725 368.306C320.867 367.975 320.974 367.605 321.04 367.197C321.096 366.851 320.902 366.518 320.607 366.453ZM325.261 346.141C325.261 346.141 322.416 342.908 325.261 340.105C328.304 343.665 328.304 343.665 328.304 343.665V345.687L325.261 346.141Z" fill="white"/>
<path d="M331.348 346.141C331.348 346.141 334.193 342.908 331.348 340.105C328.304 343.665 328.304 343.665 328.304 343.665V345.687L331.348 346.141Z" fill="white"/>
<path d="M108.935 298.815C108.613 301.818 105.419 301.786 101.169 300.709C98.3745 299.531 95.8752 298.211 93.6092 295.807C90.1627 292.151 87.7761 287.346 85.6545 282.502C83.5319 277.66 81.6 272.659 78.8427 268.275C76.0488 263.832 72.4837 260.146 69.324 256.054C66.1643 251.961 63.3269 247.247 62.4776 241.823C62.2107 240.121 62.2433 238.096 63.3871 236.998C63.5018 236.888 63.6214 236.792 63.744 236.711C63.7974 236.798 63.8517 236.887 63.9091 236.978C66.8177 241.707 73.4358 251.86 80.8161 259.167C90.7431 268.993 102.805 281.38 107.668 293.233C108.695 295.735 109.072 297.546 108.935 298.815Z" fill="#6CBC39"/>
<path d="M108.935 298.815C108.613 301.818 105.419 301.786 101.169 300.709C98.3745 299.531 95.8752 298.211 93.6092 295.807C90.1627 292.151 87.7761 287.346 85.6545 282.502C83.5319 277.66 81.6 272.659 78.8427 268.275C76.0488 263.832 72.4837 260.146 69.324 256.054C66.1643 251.961 63.3269 247.247 62.4776 241.823C62.2107 240.121 62.2433 238.096 63.3871 236.998C63.5018 236.888 63.6214 236.792 63.744 236.711C63.7974 236.798 63.8517 236.887 63.9091 236.978C64.2363 242.028 65.7905 248.122 70.3848 253.495C80.4937 265.318 94.4881 280.604 98.2945 290.166C100.213 294.99 104.83 297.506 108.935 298.815Z" fill="#0D9214"/>
<path d="M114.994 300.456C114.188 297.939 112.047 295.751 110.132 294.412C105.597 291.24 99.9507 291.122 94.7322 292.091C89.5137 293.06 84.4421 295.014 79.1897 295.687C75.8481 296.115 72.4244 296.027 69.2014 297.144C64.3384 298.829 60.2634 303.36 58.5782 308.955C58.1669 310.321 57.9204 311.948 58.6364 313.129C58.6742 313.192 58.7146 313.251 58.7562 313.308C59.8075 311.516 60.8522 309.774 62.4024 308.396C70.6082 300.996 80.6925 300.186 90.4801 301.921C98.4409 303.307 105.894 306.73 113.895 306.084C114.864 304.377 115.649 302.5 114.994 300.456Z" fill="#86C546"/>
<path d="M81.1682 307.477C70.5424 305.353 62.8246 311.17 59.7069 314.115C60.3267 314.437 61.0562 314.548 61.7421 314.546C64.5849 314.535 67.2752 313.129 70.0692 312.515C75.4348 311.337 80.9034 313.111 86.2563 314.366C91.7883 315.663 97.5678 316.403 103.034 314.768C106.907 313.609 110.614 311.092 113.099 307.383C105.65 309.56 93.1069 309.862 81.1682 307.477Z" fill="#0D9214"/>
<path d="M113.895 306.084C105.894 306.73 98.4408 303.307 90.4801 301.921C80.6925 300.186 70.6082 300.995 62.4024 308.396C60.8521 309.774 59.8075 311.516 58.7562 313.308C59.0137 313.664 59.3413 313.926 59.7069 314.115C62.8245 311.17 70.5424 305.353 81.1682 307.477C93.1068 309.862 105.65 309.56 113.099 307.383C113.281 307.111 113.458 306.832 113.627 306.546C113.717 306.394 113.807 306.239 113.895 306.084Z" fill="#6CBC39"/>
<path d="M154.536 283.15C151.406 289.185 144.723 296.528 138.902 303.644C135.026 308.384 131.531 313.025 129.728 317.112C126.479 324.475 125.69 329.668 125.502 331.997C124.043 331.571 122.658 331.148 121.356 330.722C121.251 330.689 121.147 330.654 121.044 330.62C119.421 330.085 117.913 329.468 116.508 328.76C111.874 326.432 108.347 323.144 105.44 318.701C105.375 318.189 105.343 317.659 105.343 317.112C105.343 317.112 109.148 311.177 113.518 298.153C117.888 285.129 122.398 264.686 136.634 257.267C150.871 249.848 156.509 245.727 160.316 245.727C164.121 245.727 159.751 273.094 154.536 283.15Z" fill="#F8877F"/>
<path d="M139.991 266.35C139.991 266.35 134.822 267.207 132.194 268.982C129.567 270.756 133.178 265.573 135.577 263.953C137.977 262.333 145.382 258.018 145.382 258.018L139.991 266.35ZM138.902 303.644C135.026 308.384 131.531 313.025 129.728 317.112C126.479 324.475 125.69 329.668 125.502 331.997C124.043 331.571 122.658 331.148 121.356 330.722C122.03 325.764 123.81 318.094 128.518 312.588C132.757 307.629 136.167 305.353 138.902 303.644ZM129.9 295.25C129.9 295.25 139.721 295.673 138.474 300.696C130.855 302.366 129.9 298.356 129.9 295.25Z" fill="#EA716E"/>
<path d="M249.963 293.233C249.963 293.233 253.346 286.935 255.461 291.93C257.575 296.926 243.183 332.965 235.216 338.345C227.248 343.725 249.963 293.233 249.963 293.233Z" fill="#F8877F"/>
<path d="M217.18 341.172L133.212 301.968C127.804 299.443 126.962 291.608 131.242 284.536L166.252 226.684C170.027 220.447 177.216 217.084 182.385 219.116L262.256 250.514C268.06 252.796 270.1 260.222 266.731 267.169L235.343 331.898C231.488 339.846 223.313 344.035 217.18 341.172Z" fill="#22320B"/>
<path d="M217.18 337.443L133.212 298.239C127.804 295.714 126.962 287.879 131.242 280.808L166.252 222.955C170.027 216.718 177.216 213.355 182.385 215.387L262.256 246.785C268.06 249.067 270.1 256.493 266.731 263.44L235.343 328.169C231.488 336.118 223.313 340.307 217.18 337.443Z" fill="#CFE6AF"/>
<path d="M221.329 333.373C220.4 333.373 219.534 333.189 218.756 332.826L134.788 293.621C133.822 293.171 133.218 292.418 132.941 291.322C132.422 289.271 133.101 286.342 134.712 283.68L169.722 225.828C171.882 222.259 175.75 219.767 179.129 219.767C179.829 219.767 180.469 219.879 181.031 220.1L260.901 251.498C262.318 252.055 263.318 253.118 263.794 254.573C264.395 256.413 264.118 258.751 263.033 260.987L231.645 325.716C229.459 330.224 225.217 333.373 221.329 333.373Z" fill="white"/>
<path d="M223.499 254.214L216.302 251.34L219.613 245.413L226.799 248.242L223.499 254.214Z" fill="#00A3CC"/>
<path d="M236.379 259.355L229.04 256.426L232.331 250.42L239.658 253.304L236.379 259.355Z" fill="#00A3CC"/>
<path d="M249.514 264.599L242.03 261.611L245.299 255.525L252.77 258.466L249.514 264.599Z" fill="#00A3CC"/>
<path d="M244.615 271.397C241.173 271.301 240.357 274.465 237.386 274.604C234.422 274.743 230.981 278.153 227.722 279.435C224.464 280.717 220.444 280.544 213.765 274.362C210.343 271.195 207.007 271.394 204.584 272.315L201.276 278.236L234.731 292.444L245.872 271.459C245.485 271.431 245.067 271.409 244.615 271.397Z" fill="#93D53D"/>
<path d="M213.765 274.362C220.444 280.544 224.464 280.717 227.722 279.435C230.981 278.153 234.422 274.743 237.386 274.604C240.357 274.465 241.173 271.3 244.615 271.397C245.067 271.409 245.485 271.431 245.872 271.459L247.649 268.113L214.405 254.736L204.584 272.316C207.007 271.394 210.343 271.195 213.765 274.362Z" fill="#5AABDA"/>
<path d="M231.689 297.611L157.724 265.835L158.884 263.879L232.813 295.494L231.689 297.611Z" fill="#86C546"/>
<path d="M156.6 280.23L150.725 277.636L155.436 269.692L161.302 272.234L156.6 280.23Z" fill="#5AABDA"/>
<path d="M149.897 291.627L144.009 288.959L148.793 280.893L154.672 283.508L149.897 291.627Z" fill="#5AABDA"/>
<path d="M165.703 284.249L159.742 281.617L164.439 273.594L170.39 276.174L165.703 284.249Z" fill="#5AABDA"/>
<path d="M159.021 295.762L153.046 293.054L157.816 284.907L163.781 287.561L159.021 295.762Z" fill="#5AABDA"/>
<path d="M182.292 286.786C180.913 289.214 177.959 290.377 175.705 289.381C173.459 288.388 172.77 285.629 174.153 283.223C175.533 280.825 178.459 279.672 180.7 280.643C182.949 281.618 183.667 284.367 182.292 286.786ZM194.496 292.129C193.123 294.588 190.139 295.762 187.842 294.746C185.553 293.734 184.823 290.935 186.2 288.497C187.573 286.067 190.528 284.904 192.812 285.894C195.105 286.888 195.864 289.677 194.496 292.129ZM175.974 297.907C174.573 300.371 171.598 301.541 169.339 300.517C167.087 299.497 166.41 296.687 167.815 294.245C169.214 291.811 172.161 290.651 174.408 291.649C176.663 292.651 177.369 295.451 175.974 297.907ZM188.208 303.397C186.815 305.894 183.809 307.075 181.505 306.031C179.211 304.991 178.493 302.139 179.891 299.665C181.284 297.198 184.261 296.027 186.551 297.045C188.85 298.067 189.597 300.909 188.208 303.397Z" fill="#F68624"/>
<path d="M202.12 240.793C200.671 238.775 198.629 237.152 196.061 236.141C195.507 235.923 194.943 235.74 194.371 235.589L187.164 251.516L202.12 240.793Z" fill="#170D10"/>
<path d="M173.354 244.059C173.025 244.522 172.714 245 172.422 245.494C167.397 253.992 169.861 263.743 178.074 267.224C180.662 268.32 183.506 268.659 186.35 268.336L187.164 251.516L173.354 244.059Z" fill="#EF4821"/>
<path d="M204.338 252.165L187.164 251.516L191.918 266.853C196.115 265.072 199.874 261.887 202.255 257.68C203.283 255.863 203.97 254.002 204.338 252.165Z" fill="#F37E92"/>
<path d="M204.338 252.165C205.181 247.969 204.356 243.908 202.12 240.793L187.164 251.516L204.338 252.165Z" fill="#BCD845"/>
<path d="M194.37 235.589C187.002 233.643 178.235 237.164 173.354 244.059L187.164 251.516L194.37 235.589Z" fill="#00A3CC"/>
<path d="M186.35 268.336C188.234 268.123 190.115 267.618 191.918 266.853L187.164 251.516L186.35 268.336Z" fill="#3BA5E2"/>
<path d="M196.894 295.379C196.894 295.379 203.05 292.295 205.097 295.526C207.16 298.78 208.959 299.624 211.011 299.359C213.065 299.093 217.993 298.629 219.761 301.366C221.54 304.121 226.727 305.216 226.727 305.216L224.686 309.053L196.257 296.527L196.894 295.379ZM192.346 303.57C192.346 303.57 197.898 301.626 199.666 305.408C201.448 309.22 204.236 308.281 206.431 307.773C208.628 307.264 212.895 308.072 214.433 311.275C215.981 314.5 222.095 313.927 222.095 313.927L218.714 320.284L190.208 307.421L192.346 303.57Z" fill="#FFC413"/>
<path opacity="0.4" d="M169.722 225.828L168.718 227.487L177.639 313.628L187.801 318.373L175.986 220.415C173.564 221.377 171.228 223.34 169.722 225.828ZM203.051 228.757L216.127 331.598L218.756 332.826C219.534 333.189 220.4 333.373 221.329 333.373C225.216 333.373 229.458 330.224 231.645 325.716L246.504 295.073L235.129 241.367L203.051 228.757Z" fill="white"/>
<path d="M248.695 302.398C248.695 305.365 245.418 312.66 243.62 320.574C242.772 324.312 240.273 330.336 237.404 336.358C234.197 343.089 230.529 349.816 228.185 353.34C225.229 357.786 222.223 366.556 220.543 372.75C219 372.134 217.523 371.498 216.116 370.845C211.77 368.825 208.105 366.636 205.307 364.37C204.993 364.115 204.688 363.86 204.397 363.603C203.054 362.425 201.65 361.293 200.195 360.206C203.332 353.099 207.829 342.464 208.552 338.344C209.419 333.399 208.022 335.178 208.022 325.109C208.385 320.364 208.67 309.993 212.751 304.179C218.882 295.442 219.657 290.991 222.9 290.991C226.142 290.991 226.697 295.643 224.938 300.298C222.965 305.519 222.62 314.367 223.922 312.847C225.83 310.614 228.869 302.251 228.869 302.251C228.869 302.251 232.284 293.078 232.025 287.275C231.719 280.421 232.909 277.58 234.537 277.041C236.164 276.501 238.396 282.093 238.98 288.582C239.558 295.02 236.282 309.24 236.221 309.443C236.337 309.218 243.739 294.825 245.312 291.022C246.898 287.189 250.735 282.295 252.44 283.447C254.144 284.599 248.695 299.431 248.695 302.398Z" fill="#F8877F"/>
<path d="M237.404 336.358C234.197 343.089 230.529 349.816 228.185 353.34C225.229 357.786 222.223 366.556 220.543 372.75C219 372.134 217.523 371.498 216.116 370.845C217.304 367.202 219.519 362.041 223.604 354.956C229.101 345.425 233.796 340.247 237.404 336.358Z" fill="#EA716E"/>
<path d="M151.924 261.878C145.201 266.527 140.158 265.437 136.145 267.393L124.23 292.053C124.23 292.053 129.842 284.39 140.456 282.198C151.07 280.006 161.074 263.705 161.074 261.221C161.074 258.737 158.647 257.229 151.924 261.878Z" fill="#F8877F"/>
<path d="M249.199 299.594C249.199 299.594 246.649 312.005 245.135 314.934C250.88 304.756 250.88 296.129 250.88 296.129L249.199 299.594Z" fill="#EA716E"/>
<path d="M389.68 182.534C389.68 182.534 399.89 184.43 414.647 193.969C434.033 206.502 438.741 227.667 438.741 227.667C438.741 227.667 440.254 214.498 440.254 208.065C440.254 201.633 427.286 189.931 409.058 182.59C394.021 177.896 389.68 182.534 389.68 182.534Z" fill="#BCD845"/>
<path d="M430.105 295.299C432.266 295.299 434.017 293.251 434.017 290.724C434.017 288.197 432.266 286.149 430.105 286.149C427.945 286.149 426.194 288.197 426.194 290.724C426.194 293.251 427.945 295.299 430.105 295.299Z" fill="#93C74B"/>
<path d="M68.5118 293.233C71.1044 293.233 73.206 290.775 73.206 287.743C73.206 284.711 71.1044 282.253 68.5118 282.253C65.9193 282.253 63.8176 284.711 63.8176 287.743C63.8176 290.775 65.9193 293.233 68.5118 293.233Z" fill="#6CBC39"/>
<path d="M68.5118 228.343C70.2798 228.343 71.713 226.667 71.713 224.599C71.713 222.531 70.2798 220.855 68.5118 220.855C66.7438 220.855 65.3106 222.531 65.3106 224.599C65.3106 226.667 66.7438 228.343 68.5118 228.343Z" fill="#86C546"/>
<path d="M446.148 200.609C446.148 200.609 447.684 219.563 444.459 236.74C442.059 249.52 434.009 260.88 436.781 265.037C443.279 274.78 450.781 269.644 453.856 240.557C456.93 211.47 452.178 183.872 446.148 200.609Z" fill="#93C74B"/>
<path d="M372.321 230.2L405.524 210.562L407.834 212.571L375.753 230.2H372.321Z" fill="url(#paint0_linear_32_475)"/>
<path d="M339.02 194.771L367.226 184.914L369.189 185.922L341.936 194.771H339.02Z" fill="url(#paint1_linear_32_475)"/>
<path d="M309.795 183.63L326.22 179.707L327.363 180.108L311.493 183.63H309.795Z" fill="url(#paint2_linear_32_475)"/>
<path d="M240.346 218.917C236.223 217.323 232.512 216.899 229.729 216.899C226.581 216.899 224.616 217.44 224.561 217.455C224.056 217.595 223.744 218.187 223.864 218.777C223.984 219.367 224.489 219.732 224.994 219.593C224.994 219.593 224.995 219.592 224.995 219.592C224.995 219.592 224.995 219.592 224.995 219.592C225.023 219.585 226.831 219.096 229.728 219.096C232.35 219.096 235.859 219.495 239.756 221.003C243.653 222.511 247.939 225.121 252.139 229.571C252.524 229.978 253.118 229.944 253.466 229.494C253.814 229.045 253.785 228.35 253.401 227.942C249 223.279 244.468 220.51 240.346 218.917ZM260.243 217.897C258.365 214.733 256.223 212.182 253.938 210.144C250.51 207.085 246.765 205.182 243.096 204.045C239.425 202.909 235.829 202.535 232.67 202.535C229.553 202.535 226.86 202.899 224.941 203.264C223.021 203.63 221.873 203.996 221.847 204.004C221.346 204.164 221.052 204.769 221.189 205.354C221.326 205.939 221.842 206.283 222.342 206.123L222.342 206.123C222.342 206.123 222.342 206.123 222.343 206.123C222.361 206.117 223.458 205.77 225.291 205.424C227.128 205.077 229.704 204.732 232.67 204.732C236.713 204.731 241.477 205.374 246.088 207.496C248.395 208.557 250.665 209.986 252.799 211.89C254.933 213.795 256.933 216.175 258.7 219.15C258.996 219.649 259.581 219.772 260.008 219.426C260.434 219.08 260.539 218.395 260.243 217.897Z" fill="white"/>
<defs>
<linearGradient id="paint0_linear_32_475" x1="374.193" y1="234.367" x2="406.232" y2="215.226" gradientUnits="userSpaceOnUse">
<stop stop-color="white"/>
<stop offset="1" stop-color="white" stop-opacity="0"/>
</linearGradient>
<linearGradient id="paint1_linear_32_475" x1="341.873" y1="200.342" x2="366.543" y2="185.604" gradientUnits="userSpaceOnUse">
<stop stop-color="white"/>
<stop offset="1" stop-color="white" stop-opacity="0"/>
</linearGradient>
<linearGradient id="paint2_linear_32_475" x1="311.792" y1="187.415" x2="325.48" y2="179.238" gradientUnits="userSpaceOnUse">
<stop stop-color="white"/>
<stop offset="1" stop-color="white" stop-opacity="0"/>
</linearGradient>
</defs>
</svg>
